<mxfile host="app.diagrams.net" modified="2021-10-19T13:49:11.597Z" agent="5.0 (X11)" etag="lrljDEOPF-IHuoYaBmH0" version="15.5.5" type="github">
  <diagram id="afnWRwcvHSymUkZ44OzH" name="Page-1">
    <mxGraphModel dx="1697" dy="465" grid="1" gridSize="10" guides="1" tooltips="1" connect="1" arrows="1" fold="1" page="1" pageScale="1" pageWidth="827" pageHeight="1169" math="0" shadow="0">
      <root>
        <mxCell id="0" />
        <mxCell id="1" parent="0" />
        <mxCell id="JUnkOE2_TBgbnRqX_qNR-1" value="" style="rounded=0;whiteSpace=wrap;html=1;" vertex="1" parent="1">
          <mxGeometry x="-30" y="110" width="700" height="440" as="geometry" />
        </mxCell>
        <mxCell id="JUnkOE2_TBgbnRqX_qNR-2" value="Médiathèque" style="text;html=1;strokeColor=none;fillColor=none;align=center;verticalAlign=middle;whiteSpace=wrap;rounded=0;" vertex="1" parent="1">
          <mxGeometry x="270" y="130" width="100" height="30" as="geometry" />
        </mxCell>
      </root>
    </mxGraphModel>
  </diagram>
</mxfile>
